<svg width="41" height="37" viewBox="0 0 41 37" fill="none" xmlns="http://www.w3.org/2000/svg">
<path d="M39.5156 7.43441C38.8873 5.97958 37.9813 4.66123 36.8484 3.55316C35.7147 2.44178 34.378 1.55858 32.9109 0.951596C31.3897 0.319688 29.7582 -0.00375837 28.1109 3.29478e-05C25.8 3.29478e-05 23.5453 0.632845 21.5859 1.82816C21.1172 2.1141 20.6719 2.42816 20.25 2.77035C19.8281 2.42816 19.3828 2.1141 18.9141 1.82816C16.9547 0.632845 14.7 3.29478e-05 12.3891 3.29478e-05C10.725 3.29478e-05 9.1125 0.318783 7.58906 0.951596C6.11719 1.56097 4.79062 2.43753 3.65156 3.55316C2.51717 4.65998 1.61099 5.97864 0.984375 7.43441C0.332813 8.94847 0 10.5563 0 12.211C0 13.7719 0.31875 15.3985 0.951563 17.0532C1.48125 18.436 2.24062 19.8703 3.21094 21.3188C4.74844 23.611 6.8625 26.0016 9.4875 28.425C13.8375 32.4422 18.1453 35.2172 18.3281 35.3297L19.4391 36.0422C19.9313 36.3563 20.5641 36.3563 21.0563 36.0422L22.1672 35.3297C22.35 35.2125 26.6531 32.4422 31.0078 28.425C33.6328 26.0016 35.7469 23.611 37.2844 21.3188C38.2547 19.8703 39.0187 18.436 39.5437 17.0532C40.1766 15.3985 40.4953 13.7719 40.4953 12.211C40.5 10.5563 40.1672 8.94847 39.5156 7.43441V7.43441Z" fill="#A9D3EB"/>
<path d="M11.9409 11.916C10.3449 11.916 9.21694 13.392 9.21694 15.696C9.21694 18.012 10.3449 19.488 11.9409 19.488C13.5369 19.488 14.6649 18.012 14.6649 15.696C14.6649 13.392 13.5369 11.916 11.9409 11.916ZM11.9409 12.816C12.9849 12.816 13.7169 13.944 13.7169 15.696C13.7169 17.46 12.9849 18.612 11.9409 18.612C10.8849 18.612 10.1649 17.46 10.1649 15.696C10.1649 13.944 10.8849 12.816 11.9409 12.816ZM16.3929 11.088V21.936H17.4009V11.088H16.3929ZM17.1609 15.42V16.26H19.1769V15.42H17.1609ZM27.744 11.088V21.936H28.728V11.088H27.744ZM28.164 15.324V16.152H30.168V15.324H28.164ZM20.292 12.096V19.308H23.292V12.096H22.464V14.88H21.144V12.096H20.292ZM21.144 15.672H22.464V18.492H21.144V15.672ZM23.868 12.096V19.308H26.832V12.096H25.992V14.88H24.708V12.096H23.868ZM24.708 15.672H25.992V18.492H24.708V15.672Z" fill="white"/>
</svg>
